<svg xmlns="http://www.w3.org/2000/svg" viewBox="0 0 512 512" role="img" aria-label="Dansk Kemisortering">
  <title>Dansk Kemisortering</title>
  <rect width="512" height="512" rx="60" ry="60" fill="#00859B"/>
  <g transform="translate(0,512) scale(0.1,-0.1)" fill="#fff">
    <path d="M2891 4695 c-110 -29 -121 -36 -121 -81 0 -33 1 -34 39 -34 87 0 286 -46 301 -70 3 -5 5 -84 5 -177 l0 -168 -53 3 -52 4 0 -40 c0 -39 1 -39 41 -45 47 -6 59 -18 59 -63 0 -113 79 -314 187 -474 133 -200 236 -406 261 -525 16 -74 21 -279 28 -1100 4 -407 8 -741 9 -743 4 -4 223 18 240 24 44 17 45 39 43 511 -4 927 -14 1392 -32 1461 -34 130 -127 312 -266 523 -109 164 -156 289 -185 491 -5 35 -8 37 -48 40 -41 3 -42 4 -45 42 l-3 38 51 -7 50 -7 -2 184 -3 183 -80 24 c-124 36 -299 39 -424 6z"/>
    <path d="M2341 4425 c-139 -31 -161 -42 -161 -84 l0 -38 88 -12 c48 -7 116 -22 152 -34 l65 -22 3 -177 2 -177 -50 6 -50 6 0 -40 c0 -40 0 -41 43 -47 l44 -7 12 -82 c24 -157 82 -303 166 -422 104 -148 226 -377 265 -500 28 -87 38 -390 42 -1287 2 -328 6 -599 10 -603 4 -4 64 -2 134 4 116 9 130 12 153 36 l26 25 1 273 c0 149 -3 567 -7 927 -7 615 -9 660 -28 735 -28 108 -130 310 -242 480 -104 157 -159 279 -184 405 -9 47 -20 101 -24 120 -6 32 -10 35 -46 40 -38 5 -40 7 -43 41 l-3 36 50 -5 51 -5 0 181 0 180 -48 16 c-138 46 -297 57 -421 31z"/>
    <path d="M1719 4164 c-42 -7 -98 -22 -125 -31 l-49 -19 -3 -177 -2 -177 50 0 50 0 0 -35 c0 -30 -3 -35 -22 -35 -59 0 -63 -6 -76 -96 -25 -171 -73 -287 -192 -470 -86 -132 -191 -340 -227 -449 -25 -79 -26 -87 -32 -475 -4 -217 -7 -568 -7 -780 l1 -385 120 0 120 0 3 78 3 77 109 0 109 0 3 -32 3 -33 125 0 125 0 3 32 3 33 75 0 74 0 0 -75 0 -75 130 0 130 0 0 75 0 75 90 0 90 0 0 -110 0 -110 132 0 131 0 -7 648 c-9 906 -11 955 -48 1067 -36 110 -126 279 -236 444 -128 191 -178 309 -202 480 -10 75 -8 71 -59 78 -39 5 -41 7 -41 39 l0 34 50 0 50 0 0 179 0 178 -72 21 c-143 42 -251 50 -379 26z"/>
    <path d="M1550 825 l0 -125 130 0 130 0 0 125 0 125 -130 0 -130 0 0 -125z"/>
    <path d="M1080 760 l0 -130 125 0 125 0 0 130 0 130 -125 0 -125 0 0 -130z"/>
    <path d="M1962 743 l3 -128 125 0 125 0 3 128 3 127 -131 0 -131 0 3 -127z"/>
    <path d="M2400 676 c0 -90 3 -125 13 -128 6 -2 64 -4 127 -4 l115 1 3 128 3 127 -131 0 -130 0 0 -124z"/>
    <path d="M1550 435 l0 -125 130 0 130 0 0 125 0 125 -130 0 -130 0 0 -125z"/>
  </g>
</svg>
