<svg xmlns="http://www.w3.org/2000/svg" viewBox="0 0 561 1024" role="img" aria-label="Dansk Kemisortering">
  <title>Dansk Kemisortering</title>
  <rect width="561" height="1024" fill="#00859B"/>
  <g transform="translate(0,1024) scale(0.1,-0.1)" fill="#fff">
    <path d="M3930 9594 c-14 -2 -65 -9 -115 -15 -98 -12 -310 -67 -372 -96 l-38 -18 0 -125 0 -125 115 -6 c192 -11 534 -90 560 -130 3 -4 5 -162 5 -351 l0 -343 -103 3 -102 3 0 -74 c0 -85 -8 -78 117 -93 71 -8 62 11 84 -164 31 -256 154 -594 285 -785 322 -471 522 -850 600 -1139 36 -132 48 -521 59 -1871 10 -1175 15 -1749 18 -1750 1 -1 101 7 222 17 250 22 282 32 322 103 l23 40 -2 750 c-2 968 -14 2108 -27 2591 -11 372 -12 384 -40 498 -64 250 -251 623 -500 994 -64 95 -137 209 -164 255 -110 191 -211 521 -233 760 -8 87 3 79 -129 95 l-60 7 0 70 0 70 103 -4 102 -3 0 355 0 356 -55 20 c-200 75 -542 128 -675 105z"/>
    <path d="M2695 8924 c-135 -20 -370 -81 -428 -110 l-28 -15 3 -107 3 -107 102 -7 c149 -10 309 -44 466 -100 l57 -21 0 -349 0 -349 -47 5 c-27 3 -74 8 -105 11 l-58 5 0 -84 0 -83 86 -11 c48 -7 89 -13 91 -15 2 -2 12 -63 23 -135 47 -321 143 -585 297 -813 359 -532 547 -901 607 -1190 25 -120 34 -649 52 -2844 3 -412 7 -750 8 -751 7 -5 460 38 488 46 45 13 94 67 108 120 8 29 9 201 6 568 -3 290 -8 896 -11 1347 -7 932 -20 1637 -35 1776 -29 282 -241 727 -583 1221 -182 263 -288 543 -334 878 l-17 128 -88 12 -88 12 0 74 0 75 100 -7 100 -7 0 350 c0 268 -3 353 -12 361 -18 14 -197 68 -308 93 -92 20 -377 34 -455 23z"/>
    <path d="M1495 8364 c-209 -31 -331 -58 -445 -100 l-70 -26 0 -356 0 -355 100 7 100 7 0 -74 0 -74 -67 -7 c-114 -12 -110 -9 -117 -84 -20 -200 -76 -420 -156 -607 -53 -126 -102 -210 -261 -447 -216 -322 -403 -689 -474 -934 -18 -63 -29 -130 -35 -229 -12 -180 -28 -1144 -36 -2207 l-7 -838 256 0 257 0 0 195 0 195 220 0 219 0 3 -82 3 -83 248 -3 247 -2 0 85 0 85 160 0 160 0 2 -167 3 -168 248 -3 247 -2 0 170 0 170 180 0 180 0 0 -240 0 -240 262 0 261 0 -7 1177 c-3 648 -8 1207 -11 1243 -2 36 -7 215 -10 398 -3 183 -10 367 -16 410 -35 251 -237 673 -540 1125 -234 349 -322 574 -374 946 -8 63 -17 116 -18 118 -7 6 -111 23 -143 23 l-34 0 0 76 0 75 105 -7 105 -7 0 352 0 352 -47 21 c-163 72 -548 134 -698 112z"/>
    <path d="M980 1660 l0 -250 250 0 250 0 0 250 0 250 -250 0 -250 0 0 -250z"/>
    <path d="M1800 1490 l0 -250 250 0 250 0 0 250 0 250 -250 0 -250 0 0 -250z"/>
    <path d="M40 1702 c-6 -2 -10 -92 -10 -242 0 -218 2 -240 17 -248 14 -6 411 -9 481 -3 9 1 12 57 12 246 0 189 -3 245 -12 246 -37 3 -480 3 -488 1z"/>
    <path d="M2660 1356 l0 -254 28 -3 c15 -2 131 -4 257 -4 l230 1 3 257 2 257 -260 0 -260 0 0 -254z"/>
    <path d="M987 1124 c-10 -10 -9 -494 1 -495 32 -4 476 -3 483 2 5 3 8 108 7 250 l-3 244 -241 3 c-132 1 -243 -1 -247 -4z"/>
  </g>
</svg>
